<svg width="113" height="28" viewBox="0 0 113 28" fill="none" xmlns="http://www.w3.org/2000/svg">
<path d="M10.952 27.36C8.792 27.36 6.908 26.844 5.3 25.812C3.716 24.756 2.492 23.256 1.628 21.312C0.764 19.368 0.332 17.064 0.332 14.4C0.332 11.76 0.764 9.468 1.628 7.524C2.516 5.58 3.776 4.08 5.408 3.024C7.04 1.968 8.948 1.44 11.132 1.44C12.788 1.44 14.288 1.776 15.632 2.448C16.976 3.096 17.996 4.008 18.692 5.184L17.216 6.768C15.872 4.704 13.868 3.672 11.204 3.672C8.612 3.672 6.596 4.608 5.156 6.48C3.74 8.352 3.032 10.992 3.032 14.4C3.032 17.76 3.728 20.388 5.12 22.284C6.536 24.18 8.492 25.128 10.988 25.128C13.868 25.128 15.944 24.096 17.216 22.032L18.692 23.616C18.02 24.792 17 25.716 15.632 26.388C14.264 27.036 12.704 27.36 10.952 27.36ZM29.6422 27.36C27.9142 27.36 26.4022 26.976 25.1062 26.208C23.8342 25.44 22.8502 24.348 22.1542 22.932C21.4582 21.516 21.1102 19.872 21.1102 18C21.1102 16.128 21.4582 14.484 22.1542 13.068C22.8502 11.652 23.8342 10.56 25.1062 9.792C26.4022 9.024 27.9142 8.64 29.6422 8.64C31.3702 8.64 32.8702 9.024 34.1422 9.792C35.4382 10.56 36.4342 11.652 37.1302 13.068C37.8262 14.484 38.1742 16.128 38.1742 18C38.1742 19.872 37.8262 21.516 37.1302 22.932C36.4342 24.348 35.4382 25.44 34.1422 26.208C32.8702 26.976 31.3702 27.36 29.6422 27.36ZM29.6422 25.38C31.4902 25.38 32.9542 24.72 34.0342 23.4C35.1382 22.056 35.6902 20.256 35.6902 18C35.6902 15.744 35.1382 13.956 34.0342 12.636C32.9542 11.292 31.4902 10.62 29.6422 10.62C27.7942 10.62 26.3182 11.292 25.2142 12.636C24.1342 13.956 23.5942 15.744 23.5942 18C23.5942 20.256 24.1342 22.056 25.2142 23.4C26.3182 24.72 27.7942 25.38 29.6422 25.38ZM45.8712 27.36C43.4472 27.36 42.2352 25.86 42.2352 22.86V0.287998H44.7552V22.824C44.7552 23.784 44.8872 24.456 45.1512 24.84C45.4392 25.224 45.9312 25.416 46.6272 25.416C47.1072 25.416 47.6832 25.284 48.3552 25.02L48.7872 26.568C47.9232 27.096 46.9512 27.36 45.8712 27.36ZM57.5374 27.36C55.7854 27.36 54.3454 26.856 53.2174 25.848C52.0894 24.816 51.5254 23.496 51.5254 21.888C51.5254 20.112 52.1854 18.732 53.5054 17.748C54.8494 16.74 56.7214 16.236 59.1214 16.236H63.1534V15.264C63.1534 13.776 62.7694 12.648 62.0014 11.88C61.2574 11.088 60.1534 10.692 58.6894 10.692C57.6094 10.692 56.6134 10.932 55.7014 11.412C54.8134 11.868 54.0934 12.54 53.5414 13.428L52.1734 11.844C52.9414 10.812 53.8894 10.02 55.0174 9.468C56.1454 8.916 57.4174 8.64 58.8334 8.64C61.0174 8.64 62.6974 9.192 63.8734 10.296C65.0734 11.4 65.6734 12.96 65.6734 14.976V23.616C65.6734 24.504 65.8054 25.632 66.0694 27H63.9094C63.7414 26.472 63.5854 25.584 63.4414 24.336H63.3694C62.6974 25.296 61.8574 26.04 60.8494 26.568C59.8414 27.096 58.7374 27.36 57.5374 27.36ZM57.7894 25.344C58.7494 25.344 59.6374 25.152 60.4534 24.768C61.2694 24.384 61.9174 23.868 62.3974 23.22C62.9014 22.548 63.1534 21.84 63.1534 21.096V18.144H59.0134C57.4054 18.144 56.1574 18.468 55.2694 19.116C54.4054 19.764 53.9734 20.688 53.9734 21.888C53.9734 22.92 54.3214 23.76 55.0174 24.408C55.7134 25.032 56.6374 25.344 57.7894 25.344ZM70.885 13.392C70.885 11.352 70.849 9.888 70.777 9H73.081C73.177 9.936 73.225 10.992 73.225 12.168V12.6H73.297C73.753 11.328 74.461 10.356 75.421 9.684C76.405 8.988 77.545 8.64 78.841 8.64C79.273 8.64 79.621 8.676 79.885 8.748V10.836C79.501 10.788 79.105 10.764 78.697 10.764C77.713 10.764 76.813 11.064 75.997 11.664C75.181 12.264 74.533 13.092 74.053 14.148C73.597 15.204 73.369 16.368 73.369 17.64V27H70.885V13.392ZM97.3084 19.008H84.2044C84.3484 21 84.9124 22.536 85.8964 23.616C86.9044 24.696 88.2604 25.236 89.9644 25.236C91.0444 25.236 92.0284 25.008 92.9164 24.552C93.8044 24.072 94.5364 23.412 95.1124 22.572L96.5884 23.976C95.8924 25.056 94.9564 25.896 93.7804 26.496C92.6284 27.072 91.3324 27.36 89.8924 27.36C87.3244 27.36 85.3084 26.544 83.8444 24.912C82.4044 23.256 81.6844 20.964 81.6844 18.036C81.6844 15.108 82.3924 12.816 83.8084 11.16C85.2484 9.48 87.2284 8.64 89.7484 8.64C92.1244 8.64 93.9724 9.444 95.2924 11.052C96.6364 12.66 97.3084 14.904 97.3084 17.784V19.008ZM95.0044 16.776C95.0044 14.904 94.5244 13.428 93.5644 12.348C92.6044 11.244 91.3084 10.692 89.6764 10.692C88.0444 10.692 86.7484 11.244 85.7884 12.348C84.8524 13.452 84.3244 15.024 84.2044 17.064H95.0044V16.776ZM106.427 27.36C105.155 27.36 103.991 27.096 102.935 26.568C101.903 26.04 101.159 25.344 100.703 24.48L102.359 23.328C102.791 24 103.367 24.516 104.087 24.876C104.807 25.212 105.623 25.38 106.535 25.38C107.615 25.38 108.503 25.068 109.199 24.444C109.895 23.796 110.243 22.98 110.243 21.996C110.243 21.204 109.955 20.544 109.379 20.016C108.827 19.464 107.855 18.924 106.463 18.396C104.471 17.652 103.067 16.884 102.251 16.092C101.459 15.3 101.063 14.316 101.063 13.14C101.063 11.796 101.591 10.716 102.647 9.9C103.703 9.06 105.107 8.64 106.859 8.64C107.987 8.64 109.019 8.892 109.955 9.396C110.915 9.9 111.623 10.584 112.079 11.448L110.495 12.6C109.679 11.28 108.455 10.62 106.823 10.62C105.863 10.62 105.071 10.848 104.447 11.304C103.847 11.76 103.547 12.348 103.547 13.068C103.547 13.764 103.847 14.364 104.447 14.868C105.047 15.348 106.163 15.888 107.795 16.488C109.571 17.184 110.843 17.952 111.611 18.792C112.379 19.632 112.763 20.676 112.763 21.924C112.763 23.556 112.187 24.876 111.035 25.884C109.883 26.868 108.347 27.36 106.427 27.36Z" fill="#A07E03"/>
</svg>
