<svg width="16" height="17" viewBox="0 0 16 17" fill="none" xmlns="http://www.w3.org/2000/svg">
<path d="M1.45072 11.5228C2.16399 11.5228 2.88537 11.281 3.61485 10.7974C2.26936 10.3277 1.43991 10.0928 1.1265 10.0928C0.813094 10.0928 0.586144 10.148 0.44565 10.2586C0.310561 10.3691 0.243016 10.5211 0.243016 10.7145C0.243016 10.9011 0.351088 11.0807 0.567231 11.2534C0.788778 11.433 1.08327 11.5228 1.45072 11.5228ZM5.68983 11.1601C6.47335 11.3743 7.08125 11.4814 7.51353 11.4814C7.95122 11.4814 8.32407 11.3916 8.63208 11.2119C8.94008 11.0254 9.09408 10.8182 9.09408 10.5902C9.09408 10.4244 8.99952 10.2862 8.81039 10.1757C8.62127 10.0582 8.34569 9.99952 7.98365 9.99952C7.41087 9.99952 6.92995 10.1066 6.54089 10.3208C6.15183 10.5349 5.86814 10.8147 5.68983 11.1601ZM9.43451 4.43477C9.06706 4.87 8.61316 5.46067 8.07281 6.20678C7.53785 6.94598 7.14609 7.47794 6.89753 7.80263C6.95156 7.80954 7.03532 7.813 7.14879 7.813C7.59189 7.813 8.0701 7.66792 8.58344 7.37776C9.10219 7.08761 9.55879 6.74219 9.95325 6.3415C10.3531 5.94081 10.6854 5.5263 10.9502 5.09798C11.2204 4.66274 11.3555 4.3035 11.3555 4.02026C11.3555 3.68175 11.1637 3.51249 10.78 3.51249C10.3963 3.51249 9.94785 3.81991 9.43451 4.43477ZM8.80229 2.98399C8.80229 2.52113 8.50779 2.28969 7.9188 2.28969C7.59459 2.28969 7.25957 2.38987 6.91374 2.59021C6.57331 2.78365 6.28152 3.03926 6.03836 3.35705C5.7952 3.67484 5.59796 4.02717 5.44666 4.41404C5.29536 4.80091 5.20621 5.18433 5.17919 5.5643C5.31968 5.57811 5.43316 5.58502 5.51961 5.58502C5.96811 5.58502 6.4031 5.49521 6.82458 5.31559C7.24606 5.13597 7.59729 4.9149 7.87828 4.65238C8.15926 4.38295 8.38351 4.09971 8.55102 3.80264C8.71853 3.49867 8.80229 3.22579 8.80229 2.98399ZM4.10928 10.6835C4.50374 10.8078 4.97385 10.9529 5.51961 11.1187C5.69793 10.7456 6.00053 10.4451 6.42741 10.2171C6.8597 9.98225 7.40546 9.8648 8.0647 9.8648C8.45376 9.8648 8.76176 9.94079 8.98871 10.0928C9.22107 10.2448 9.33724 10.4278 9.33724 10.642C9.33724 10.9045 9.16163 11.136 8.81039 11.3363C8.46457 11.5366 8.01066 11.6368 7.44869 11.6368C6.89212 11.6368 6.27071 11.5539 5.58446 11.3881C5.53042 11.5539 5.5034 11.7335 5.5034 11.927C5.5034 12.376 5.67362 12.7594 6.01404 13.0772C6.35987 13.4019 6.83809 13.5643 7.44869 13.5643L7.48111 13.6472C7.38385 13.661 7.3109 13.6679 7.26227 13.6679C6.68408 13.6679 6.21938 13.4883 5.86814 13.129C5.52232 12.7767 5.3494 12.3587 5.3494 11.8752C5.3494 11.6886 5.37642 11.5159 5.43045 11.357C4.8955 11.2119 4.36054 11.0496 3.82559 10.87C3.00425 11.395 2.1856 11.6575 1.36966 11.6575C0.964394 11.6575 0.634776 11.5539 0.380807 11.3467C0.126839 11.1463 -0.000144958 10.9322 -0.000144958 10.7042C-0.000144958 10.4762 0.0971195 10.2931 0.291648 10.155C0.486177 10.0099 0.775269 9.93734 1.15892 9.93734C1.54798 9.93734 2.45578 10.1619 3.88233 10.6109C4.62802 10.0582 5.47368 9.15323 6.41931 7.8959C5.9492 7.76464 5.59526 7.50211 5.35751 7.10833C5.11975 6.70764 5.00087 6.23441 5.00087 5.68865V5.66792C4.55778 5.60575 4.22816 5.4434 4.01201 5.18088C3.80127 4.91836 3.6959 4.59366 3.6959 4.20679C3.6959 3.55048 3.96068 2.88037 4.49023 2.19643C5.01978 1.50559 5.6493 1.0669 6.37878 0.880371L6.4031 0.973635C5.67362 1.16707 5.06031 1.58503 4.56318 2.22752C4.06605 2.86309 3.81749 3.49176 3.81749 4.11352C3.81749 4.47967 3.91475 4.79055 4.10928 5.04616C4.30381 5.29487 4.601 5.46067 5.00087 5.54357C5.01708 5.12906 5.10084 4.72147 5.25214 4.32078C5.40344 3.91318 5.60337 3.54358 5.85193 3.21197C6.1059 2.87346 6.42471 2.60057 6.80837 2.39332C7.19202 2.18607 7.57568 2.08244 7.95933 2.08244C8.6618 2.08244 9.01303 2.36223 9.01303 2.92182C9.01303 3.19125 8.92387 3.48831 8.74555 3.81301C8.56723 4.13079 8.32677 4.43131 8.02417 4.71456C7.72698 4.99089 7.34873 5.22578 6.88942 5.41922C6.43552 5.60575 5.9573 5.69901 5.45477 5.69901C5.32508 5.69901 5.23052 5.69556 5.17108 5.68865V5.79228C5.17108 6.28277 5.28186 6.70419 5.5034 7.05652C5.73035 7.40194 6.07348 7.62992 6.53279 7.74046C6.7057 7.51248 6.95967 7.1636 7.29469 6.69383C7.63512 6.22405 7.89179 5.87172 8.0647 5.63683C8.24302 5.40195 8.47537 5.11179 8.76176 4.76637C9.04815 4.42095 9.28861 4.16534 9.48314 3.99953C9.99648 3.57121 10.4531 3.35705 10.8529 3.35705C11.3663 3.35705 11.623 3.57466 11.623 4.0099C11.623 4.32768 11.4825 4.71456 11.2015 5.17051C10.9259 5.62647 10.5774 6.0617 10.1559 6.47621C9.73441 6.89072 9.23998 7.2465 8.6726 7.54357C8.11063 7.83372 7.57297 7.9788 7.05963 7.9788C6.92995 7.9788 6.83539 7.97534 6.77595 7.96843C5.80871 9.20505 4.91982 10.1101 4.10928 10.6835Z" fill="#3D3D3D"/>
<path d="M15.4244 4.72497C14.9272 4.72497 14.3491 5.04621 13.6898 5.68869L14.1518 5.64724C14.4923 5.61961 14.7867 5.56089 15.0353 5.47108C15.4892 5.30528 15.7162 5.1222 15.7162 4.92186C15.7162 4.7906 15.6189 4.72497 15.4244 4.72497ZM6.75162 14.9218C6.8651 14.9633 7.00019 14.984 7.15689 14.984C7.58918 14.984 8.04578 14.8493 8.5267 14.5799C9.01302 14.3173 9.41019 14.0065 9.71819 13.6472C10.0316 13.288 10.1883 12.9667 10.1883 12.6835C10.1883 12.2759 9.84518 12.0721 9.15892 12.0721C9.07246 12.0721 9.00762 12.0756 8.96439 12.0825C8.0728 13.3398 7.33521 14.2863 6.75162 14.9218ZM8.08091 8.62133C8.08091 8.89076 8.16196 9.10837 8.32407 9.27418C8.48617 9.43307 8.72393 9.51252 9.03734 9.51252C9.35074 9.51252 9.70468 9.33635 10.0991 8.98402C10.499 8.63169 10.834 8.19646 11.1042 7.67832C11.3798 7.15328 11.5176 6.66624 11.5176 6.21719L11.5095 6.05139C10.4017 6.21719 9.55338 6.55916 8.96439 7.07729C8.3754 7.58852 8.08091 8.10319 8.08091 8.62133ZM6.02214 14.528L6.09509 14.4659C6.15993 14.5626 6.2572 14.6559 6.38688 14.7457C6.92724 14.1101 7.59999 13.2465 8.40512 12.155C7.83774 12.2724 7.23254 12.5108 6.58952 12.87C5.94649 13.2362 5.37911 13.63 4.88739 14.0514C4.39566 14.4728 3.98769 14.8942 3.66348 15.3156C3.33386 15.737 3.16905 16.079 3.16905 16.3415C3.16905 16.604 3.35817 16.7353 3.73642 16.7353C4.35243 16.7353 5.2008 16.1135 6.28151 14.87C6.14102 14.7664 6.05456 14.6524 6.02214 14.528ZM9.02924 11.9892C9.07246 11.9823 9.14001 11.9788 9.23187 11.9788C10.037 11.9788 10.4396 12.2068 10.4396 12.6628C10.4396 12.9667 10.2667 13.3087 9.92082 13.6887C9.5804 14.0755 9.14001 14.4072 8.59965 14.6835C8.0647 14.9667 7.55405 15.1084 7.06773 15.1084C6.89482 15.1084 6.74892 15.0876 6.63004 15.0462C5.50069 16.269 4.50643 16.8804 3.64726 16.8804C3.26361 16.8804 3.07178 16.7146 3.07178 16.383C3.07178 16.155 3.16635 15.8717 3.35547 15.5332C3.5392 15.1947 3.80397 14.8424 4.1498 14.4762C4.49563 14.1101 4.88739 13.7578 5.32508 13.4192C5.75736 13.0876 6.25449 12.7975 6.81647 12.5488C7.37844 12.2932 7.93771 12.1239 8.49428 12.041C8.62937 11.8545 8.89144 11.4918 9.2805 10.9529C9.67496 10.4072 9.96135 10.0134 10.1397 9.77159C10.318 9.52979 10.5774 9.18437 10.9178 8.73532C11.2582 8.27936 11.5392 7.91321 11.7607 7.63687C12.3822 6.87695 12.8955 6.30009 13.3008 5.90631C13.1224 5.92703 12.8577 5.94431 12.5064 5.95812C12.1552 5.97194 11.8607 5.99612 11.623 6.03066C11.6284 6.0652 11.6311 6.11702 11.6311 6.1861C11.6311 6.54534 11.5473 6.93221 11.3798 7.34672C11.2123 7.76123 10.9988 8.13774 10.7395 8.47625C10.4855 8.80786 10.191 9.08765 9.85598 9.31563C9.52636 9.5367 9.20755 9.64723 8.89955 9.64723C8.59694 9.64723 8.34838 9.54015 8.15386 9.32599C7.96473 9.10492 7.87017 8.84585 7.87017 8.54879C7.87017 8.25173 7.93771 7.96848 8.0728 7.69905C8.20789 7.42962 8.41052 7.1671 8.6807 6.91149C8.95088 6.65587 9.32643 6.43135 9.80735 6.23791C10.2883 6.03757 10.8421 5.8994 11.469 5.82341C11.3014 5.12566 10.7043 4.77678 9.67766 4.77678C9.40749 4.77678 9.1211 4.8355 8.8185 4.95295C8.5213 5.07039 8.25382 5.21201 8.01606 5.37781C7.53514 5.72324 7.1596 6.03757 6.88942 6.32082L6.72731 6.49698L6.67867 6.37263C6.77053 6.25519 6.95156 6.07557 7.22174 5.83377C7.49192 5.59197 7.74048 5.39509 7.96743 5.2431C8.19978 5.09111 8.48077 4.95295 8.81039 4.82859C9.14 4.70424 9.45882 4.64207 9.76682 4.64207C10.8205 4.64207 11.4284 5.03239 11.5905 5.81305C11.8607 5.7785 12.1336 5.75778 12.4092 5.75087C12.6902 5.74396 13.0603 5.72669 13.5196 5.69906C14.3301 4.94604 15.0137 4.56953 15.5703 4.56953C15.8567 4.56953 15.9999 4.64207 15.9999 4.78714C15.9999 4.97367 15.8026 5.18438 15.4082 5.41926C15.0191 5.64724 14.5679 5.78541 14.0546 5.83377C13.806 5.8614 13.6169 5.87868 13.4872 5.88558C11.9812 5.77288 12.809 6.64206 12.4092 7.16019C12.0093 7.67833 11.6608 8.15501 11.3636 8.59024C11.0664 9.01856 10.6665 9.59887 10.164 10.3312C9.66686 11.0635 9.28861 11.6161 9.02924 11.9892Z" fill="#F4DA69"/>
</svg>
