<svg width="178" height="30" viewBox="0 0 178 30" fill="none" xmlns="http://www.w3.org/2000/svg">
<path d="M43.096 3.8H50.188C52.876 3.8 54.916 4.436 56.308 5.708C57.724 6.98 58.432 8.84 58.432 11.288C58.432 13.88 57.7 15.872 56.236 17.264C54.796 18.656 52.72 19.352 50.008 19.352H45.76V29H43.096V3.8ZM50.44 17.084C52.168 17.084 53.5 16.592 54.436 15.608C55.372 14.624 55.84 13.22 55.84 11.396C55.84 9.62 55.36 8.288 54.4 7.4C53.44 6.488 52.024 6.032 50.152 6.032H45.76V17.084H50.44ZM69.1369 29.36C67.0729 29.36 65.5009 28.7 64.4209 27.38C63.3649 26.036 62.8369 24.068 62.8369 21.476V11H65.3209V21.584C65.3209 25.4 66.7369 27.308 69.5689 27.308C70.6489 27.308 71.6089 27.032 72.4489 26.48C73.3129 25.928 73.9849 25.16 74.4649 24.176C74.9689 23.192 75.2209 22.088 75.2209 20.864V11H77.7049V25.4C77.7049 26.504 77.8129 27.704 78.0289 29H75.7969C75.5809 28.016 75.4609 26.888 75.4369 25.616H75.2929C74.7649 26.792 73.9489 27.716 72.8449 28.388C71.7409 29.036 70.5049 29.36 69.1369 29.36ZM86.5899 29.36C84.1659 29.36 82.9539 27.86 82.9539 24.86V2.288H85.4739V24.824C85.4739 25.784 85.6059 26.456 85.8699 26.84C86.1579 27.224 86.6499 27.416 87.3459 27.416C87.8259 27.416 88.4019 27.284 89.0739 27.02L89.5059 28.568C88.6419 29.096 87.6699 29.36 86.5899 29.36ZM97.013 29.36C95.741 29.36 94.577 29.096 93.521 28.568C92.489 28.04 91.745 27.344 91.289 26.48L92.945 25.328C93.377 26 93.953 26.516 94.673 26.876C95.393 27.212 96.209 27.38 97.121 27.38C98.201 27.38 99.089 27.068 99.785 26.444C100.481 25.796 100.829 24.98 100.829 23.996C100.829 23.204 100.541 22.544 99.965 22.016C99.413 21.464 98.441 20.924 97.049 20.396C95.057 19.652 93.653 18.884 92.837 18.092C92.045 17.3 91.649 16.316 91.649 15.14C91.649 13.796 92.177 12.716 93.233 11.9C94.289 11.06 95.693 10.64 97.445 10.64C98.573 10.64 99.605 10.892 100.541 11.396C101.501 11.9 102.209 12.584 102.665 13.448L101.081 14.6C100.265 13.28 99.041 12.62 97.409 12.62C96.449 12.62 95.657 12.848 95.033 13.304C94.433 13.76 94.133 14.348 94.133 15.068C94.133 15.764 94.433 16.364 95.033 16.868C95.633 17.348 96.749 17.888 98.381 18.488C100.157 19.184 101.429 19.952 102.197 20.792C102.965 21.632 103.349 22.676 103.349 23.924C103.349 25.556 102.773 26.876 101.621 27.884C100.469 28.868 98.933 29.36 97.013 29.36ZM122.383 21.008H109.279C109.423 23 109.987 24.536 110.971 25.616C111.979 26.696 113.335 27.236 115.039 27.236C116.119 27.236 117.103 27.008 117.991 26.552C118.879 26.072 119.611 25.412 120.187 24.572L121.663 25.976C120.967 27.056 120.031 27.896 118.855 28.496C117.703 29.072 116.407 29.36 114.967 29.36C112.399 29.36 110.383 28.544 108.919 26.912C107.479 25.256 106.759 22.964 106.759 20.036C106.759 17.108 107.467 14.816 108.883 13.16C110.323 11.48 112.303 10.64 114.823 10.64C117.199 10.64 119.047 11.444 120.367 13.052C121.711 14.66 122.383 16.904 122.383 19.784V21.008ZM120.079 18.776C120.079 16.904 119.599 15.428 118.639 14.348C117.679 13.244 116.383 12.692 114.751 12.692C113.119 12.692 111.823 13.244 110.863 14.348C109.927 15.452 109.399 17.024 109.279 19.064H120.079V18.776ZM127.99 7.508C127.414 7.508 126.946 7.34 126.586 7.004C126.25 6.668 126.082 6.224 126.082 5.672C126.082 5.096 126.25 4.64 126.586 4.304C126.946 3.968 127.414 3.8 127.99 3.8C128.566 3.8 129.022 3.968 129.358 4.304C129.718 4.64 129.898 5.096 129.898 5.672C129.898 6.224 129.718 6.668 129.358 7.004C129.022 7.34 128.566 7.508 127.99 7.508ZM126.73 11H129.25V29H126.73V11ZM134.842 15.392C134.842 13.352 134.806 11.888 134.734 11H137.038C137.134 11.936 137.182 12.992 137.182 14.168V14.6H137.254C137.71 13.328 138.418 12.356 139.378 11.684C140.362 10.988 141.502 10.64 142.798 10.64C143.23 10.64 143.578 10.676 143.842 10.748V12.836C143.458 12.788 143.062 12.764 142.654 12.764C141.67 12.764 140.77 13.064 139.954 13.664C139.138 14.264 138.49 15.092 138.01 16.148C137.554 17.204 137.326 18.368 137.326 19.64V29H134.842V15.392ZM151.869 29.36C150.117 29.36 148.677 28.856 147.549 27.848C146.421 26.816 145.857 25.496 145.857 23.888C145.857 22.112 146.517 20.732 147.837 19.748C149.181 18.74 151.053 18.236 153.453 18.236H157.485V17.264C157.485 15.776 157.101 14.648 156.333 13.88C155.589 13.088 154.485 12.692 153.021 12.692C151.941 12.692 150.945 12.932 150.033 13.412C149.145 13.868 148.425 14.54 147.873 15.428L146.505 13.844C147.273 12.812 148.221 12.02 149.349 11.468C150.477 10.916 151.749 10.64 153.165 10.64C155.349 10.64 157.029 11.192 158.205 12.296C159.405 13.4 160.005 14.96 160.005 16.976V25.616C160.005 26.504 160.137 27.632 160.401 29H158.241C158.073 28.472 157.917 27.584 157.773 26.336H157.701C157.029 27.296 156.189 28.04 155.181 28.568C154.173 29.096 153.069 29.36 151.869 29.36ZM152.121 27.344C153.081 27.344 153.969 27.152 154.785 26.768C155.601 26.384 156.249 25.868 156.729 25.22C157.233 24.548 157.485 23.84 157.485 23.096V20.144H153.345C151.737 20.144 150.489 20.468 149.601 21.116C148.737 21.764 148.305 22.688 148.305 23.888C148.305 24.92 148.653 25.76 149.349 26.408C150.045 27.032 150.969 27.344 152.121 27.344ZM169.681 29.36C168.409 29.36 167.245 29.096 166.189 28.568C165.157 28.04 164.413 27.344 163.957 26.48L165.613 25.328C166.045 26 166.621 26.516 167.341 26.876C168.061 27.212 168.877 27.38 169.789 27.38C170.869 27.38 171.757 27.068 172.453 26.444C173.149 25.796 173.497 24.98 173.497 23.996C173.497 23.204 173.209 22.544 172.633 22.016C172.081 21.464 171.109 20.924 169.717 20.396C167.725 19.652 166.321 18.884 165.505 18.092C164.713 17.3 164.317 16.316 164.317 15.14C164.317 13.796 164.845 12.716 165.901 11.9C166.957 11.06 168.361 10.64 170.113 10.64C171.241 10.64 172.273 10.892 173.209 11.396C174.169 11.9 174.877 12.584 175.333 13.448L173.749 14.6C172.933 13.28 171.709 12.62 170.077 12.62C169.117 12.62 168.325 12.848 167.701 13.304C167.101 13.76 166.801 14.348 166.801 15.068C166.801 15.764 167.101 16.364 167.701 16.868C168.301 17.348 169.417 17.888 171.049 18.488C172.825 19.184 174.097 19.952 174.865 20.792C175.633 21.632 176.017 22.676 176.017 23.924C176.017 25.556 175.441 26.876 174.289 27.884C173.137 28.868 171.601 29.36 169.681 29.36Z" fill="#A07E03"/>
<line y1="10.5" x2="33" y2="10.5" stroke="#FFF1B3"/>
<line y1="12.5" x2="24" y2="12.5" stroke="#FFE987"/>
<line y1="14.5" x2="15" y2="14.5" stroke="#F4DA69"/>
</svg>
