<svg width="123" height="72" viewBox="0 0 123 72" fill="none" xmlns="http://www.w3.org/2000/svg">
<circle cx="14" cy="36" r="35.5" stroke="#FFF1B3"/>
<path d="M55.516 40.096H45.4L43.528 46H40.648L49.18 20.8H51.736L60.268 46H57.388L55.516 40.096ZM54.832 37.9L50.476 24.04L46.084 37.9H54.832ZM63.258 32.464C63.258 30.352 63.222 28.864 63.15 28H65.418C65.514 28.816 65.562 29.956 65.562 31.42H65.67C66.198 30.268 67.026 29.356 68.154 28.684C69.282 27.988 70.518 27.64 71.862 27.64C73.95 27.64 75.522 28.324 76.578 29.692C77.634 31.06 78.162 33.088 78.162 35.776V46H75.678V35.74C75.678 33.7 75.33 32.188 74.634 31.204C73.938 30.196 72.882 29.692 71.466 29.692C70.386 29.692 69.414 29.98 68.55 30.556C67.686 31.108 67.002 31.876 66.498 32.86C66.018 33.844 65.778 34.948 65.778 36.172V46H63.258V32.464ZM97.5272 38.008H84.4232C84.5672 40 85.1312 41.536 86.1152 42.616C87.1232 43.696 88.4792 44.236 90.1832 44.236C91.2632 44.236 92.2472 44.008 93.1352 43.552C94.0232 43.072 94.7552 42.412 95.3312 41.572L96.8072 42.976C96.1112 44.056 95.1752 44.896 93.9992 45.496C92.8472 46.072 91.5512 46.36 90.1112 46.36C87.5432 46.36 85.5272 45.544 84.0632 43.912C82.6232 42.256 81.9032 39.964 81.9032 37.036C81.9032 34.108 82.6112 31.816 84.0272 30.16C85.4672 28.48 87.4472 27.64 89.9672 27.64C92.3432 27.64 94.1912 28.444 95.5112 30.052C96.8552 31.66 97.5272 33.904 97.5272 36.784V38.008ZM95.2232 35.776C95.2232 33.904 94.7432 32.428 93.7832 31.348C92.8232 30.244 91.5272 29.692 89.8952 29.692C88.2632 29.692 86.9672 30.244 86.0072 31.348C85.0712 32.452 84.5432 34.024 84.4232 36.064H95.2232V35.776ZM91.8752 21.016H94.5392L91.1912 26.056H89.1392L91.8752 21.016ZM103.135 24.508C102.559 24.508 102.091 24.34 101.731 24.004C101.395 23.668 101.227 23.224 101.227 22.672C101.227 22.096 101.395 21.64 101.731 21.304C102.091 20.968 102.559 20.8 103.135 20.8C103.711 20.8 104.167 20.968 104.503 21.304C104.863 21.64 105.043 22.096 105.043 22.672C105.043 23.224 104.863 23.668 104.503 24.004C104.167 24.34 103.711 24.508 103.135 24.508ZM101.875 28H104.395V46H101.875V28ZM114.451 46.36C113.179 46.36 112.015 46.096 110.959 45.568C109.927 45.04 109.183 44.344 108.727 43.48L110.383 42.328C110.815 43 111.391 43.516 112.111 43.876C112.831 44.212 113.647 44.38 114.559 44.38C115.639 44.38 116.527 44.068 117.223 43.444C117.919 42.796 118.267 41.98 118.267 40.996C118.267 40.204 117.979 39.544 117.403 39.016C116.851 38.464 115.879 37.924 114.487 37.396C112.495 36.652 111.091 35.884 110.275 35.092C109.483 34.3 109.087 33.316 109.087 32.14C109.087 30.796 109.615 29.716 110.671 28.9C111.727 28.06 113.131 27.64 114.883 27.64C116.011 27.64 117.043 27.892 117.979 28.396C118.939 28.9 119.647 29.584 120.103 30.448L118.519 31.6C117.703 30.28 116.479 29.62 114.847 29.62C113.887 29.62 113.095 29.848 112.471 30.304C111.871 30.76 111.571 31.348 111.571 32.068C111.571 32.764 111.871 33.364 112.471 33.868C113.071 34.348 114.187 34.888 115.819 35.488C117.595 36.184 118.867 36.952 119.635 37.792C120.403 38.632 120.787 39.676 120.787 40.924C120.787 42.556 120.211 43.876 119.059 44.884C117.907 45.868 116.371 46.36 114.451 46.36Z" fill="#A07E03"/>
</svg>
