<svg width="153" height="125" viewBox="0 0 153 125" fill="none" xmlns="http://www.w3.org/2000/svg">
<path d="M-46.7654 82L0 1L46.7654 82H-46.7654Z" stroke="#FFF1B3"/>
<path d="M-46.7654 97L0 16L46.7654 97H-46.7654Z" stroke="#FFF1B3"/>
<path d="M43.096 73.8H49.648C52.456 73.8 54.556 74.292 55.948 75.276C57.34 76.26 58.036 77.76 58.036 79.776C58.036 82.728 56.692 84.636 54.004 85.5V85.572C55.756 86.004 57.028 86.724 57.82 87.732C58.636 88.716 59.044 90.096 59.044 91.872C59.044 94.296 58.348 96.096 56.956 97.272C55.588 98.424 53.464 99 50.584 99H43.096V73.8ZM50.188 84.636C53.644 84.636 55.372 83.064 55.372 79.92C55.372 78.576 54.904 77.592 53.968 76.968C53.056 76.32 51.628 75.996 49.684 75.996H45.76V84.636H50.188ZM50.872 96.804C52.768 96.804 54.172 96.408 55.084 95.616C55.996 94.8 56.452 93.552 56.452 91.872C56.452 90.048 55.888 88.74 54.76 87.948C53.632 87.132 51.796 86.724 49.252 86.724H45.76V96.804H50.872ZM63.6154 85.392C63.6154 83.352 63.5794 81.888 63.5074 81H65.8114C65.9074 81.936 65.9554 82.992 65.9554 84.168V84.6H66.0274C66.4834 83.328 67.1914 82.356 68.1514 81.684C69.1354 80.988 70.2754 80.64 71.5714 80.64C72.0034 80.64 72.3514 80.676 72.6154 80.748V82.836C72.2314 82.788 71.8354 82.764 71.4274 82.764C70.4434 82.764 69.5434 83.064 68.7274 83.664C67.9114 84.264 67.2634 85.092 66.7834 86.148C66.3274 87.204 66.0994 88.368 66.0994 89.64V99H63.6154V85.392ZM77.2949 77.508C76.7189 77.508 76.2509 77.34 75.8909 77.004C75.5549 76.668 75.3869 76.224 75.3869 75.672C75.3869 75.096 75.5549 74.64 75.8909 74.304C76.2509 73.968 76.7189 73.8 77.2949 73.8C77.8709 73.8 78.3269 73.968 78.6629 74.304C79.0229 74.64 79.2029 75.096 79.2029 75.672C79.2029 76.224 79.0229 76.668 78.6629 77.004C78.3269 77.34 77.8709 77.508 77.2949 77.508ZM76.0349 81H78.5549V99H76.0349V81ZM83.8947 85.464C83.8947 83.352 83.8587 81.864 83.7867 81H86.0547C86.1507 81.816 86.1987 82.956 86.1987 84.42H86.3067C86.8347 83.268 87.6627 82.356 88.7907 81.684C89.9187 80.988 91.1547 80.64 92.4987 80.64C94.5867 80.64 96.1587 81.324 97.2147 82.692C98.2707 84.06 98.7987 86.088 98.7987 88.776V99H96.3147V88.74C96.3147 86.7 95.9667 85.188 95.2707 84.204C94.5747 83.196 93.5187 82.692 92.1027 82.692C91.0227 82.692 90.0507 82.98 89.1867 83.556C88.3227 84.108 87.6387 84.876 87.1347 85.86C86.6547 86.844 86.4147 87.948 86.4147 89.172V99H83.8947V85.464ZM110.748 99.36C108.156 99.36 106.128 98.544 104.664 96.912C103.224 95.256 102.504 92.952 102.504 90C102.504 87.048 103.224 84.756 104.664 83.124C106.128 81.468 108.156 80.64 110.748 80.64C112.212 80.64 113.508 80.928 114.636 81.504C115.764 82.056 116.664 82.884 117.336 83.988L115.824 85.392C115.296 84.528 114.588 83.868 113.7 83.412C112.812 82.932 111.852 82.692 110.82 82.692C108.996 82.692 107.568 83.34 106.536 84.636C105.528 85.908 105.024 87.696 105.024 90C105.024 92.28 105.528 94.068 106.536 95.364C107.568 96.66 108.996 97.308 110.82 97.308C111.852 97.308 112.812 97.08 113.7 96.624C114.588 96.144 115.296 95.472 115.824 94.608L117.336 96.012C116.664 97.116 115.764 97.956 114.636 98.532C113.508 99.084 112.212 99.36 110.748 99.36ZM127.877 99.36C126.149 99.36 124.637 98.976 123.341 98.208C122.069 97.44 121.085 96.348 120.389 94.932C119.693 93.516 119.345 91.872 119.345 90C119.345 88.128 119.693 86.484 120.389 85.068C121.085 83.652 122.069 82.56 123.341 81.792C124.637 81.024 126.149 80.64 127.877 80.64C129.605 80.64 131.105 81.024 132.377 81.792C133.673 82.56 134.669 83.652 135.365 85.068C136.061 86.484 136.409 88.128 136.409 90C136.409 91.872 136.061 93.516 135.365 94.932C134.669 96.348 133.673 97.44 132.377 98.208C131.105 98.976 129.605 99.36 127.877 99.36ZM127.877 97.38C129.725 97.38 131.189 96.72 132.269 95.4C133.373 94.056 133.925 92.256 133.925 90C133.925 87.744 133.373 85.956 132.269 84.636C131.189 83.292 129.725 82.62 127.877 82.62C126.029 82.62 124.553 83.292 123.449 84.636C122.369 85.956 121.829 87.744 121.829 90C121.829 92.256 122.369 94.056 123.449 95.4C124.553 96.72 126.029 97.38 127.877 97.38ZM144.826 99.36C143.554 99.36 142.39 99.096 141.334 98.568C140.302 98.04 139.558 97.344 139.102 96.48L140.758 95.328C141.19 96 141.766 96.516 142.486 96.876C143.206 97.212 144.022 97.38 144.934 97.38C146.014 97.38 146.902 97.068 147.598 96.444C148.294 95.796 148.642 94.98 148.642 93.996C148.642 93.204 148.354 92.544 147.778 92.016C147.226 91.464 146.254 90.924 144.862 90.396C142.87 89.652 141.466 88.884 140.65 88.092C139.858 87.3 139.462 86.316 139.462 85.14C139.462 83.796 139.99 82.716 141.046 81.9C142.102 81.06 143.506 80.64 145.258 80.64C146.386 80.64 147.418 80.892 148.354 81.396C149.314 81.9 150.022 82.584 150.478 83.448L148.894 84.6C148.078 83.28 146.854 82.62 145.222 82.62C144.262 82.62 143.47 82.848 142.846 83.304C142.246 83.76 141.946 84.348 141.946 85.068C141.946 85.764 142.246 86.364 142.846 86.868C143.446 87.348 144.562 87.888 146.194 88.488C147.97 89.184 149.242 89.952 150.01 90.792C150.778 91.632 151.162 92.676 151.162 93.924C151.162 95.556 150.586 96.876 149.434 97.884C148.282 98.868 146.746 99.36 144.826 99.36Z" fill="#A07E03"/>
</svg>
