<svg width="156" height="334" viewBox="0 0 156 334" fill="none" xmlns="http://www.w3.org/2000/svg">
<path d="M-43.6541 36.7623L-38.5633 133.9L-38.5443 134.263L-38.1934 134.357L55.7631 159.532L-35.0471 194.391L-35.3863 194.521L-35.3673 194.884L-30.2765 292.022L-91.4911 216.428L-91.7197 216.146L-92.0588 216.276L-182.869 251.135L-129.892 169.556L-129.694 169.252L-129.922 168.969L-191.137 93.3756L-97.1804 118.551L-96.8295 118.645L-96.6316 118.341L-43.6541 36.7623Z" stroke="#FFF1B3"/>
<path d="M51.952 175.36C49.792 175.36 47.908 174.844 46.3 173.812C44.716 172.756 43.492 171.256 42.628 169.312C41.764 167.368 41.332 165.064 41.332 162.4C41.332 159.76 41.764 157.468 42.628 155.524C43.516 153.58 44.776 152.08 46.408 151.024C48.04 149.968 49.948 149.44 52.132 149.44C53.788 149.44 55.288 149.776 56.632 150.448C57.976 151.096 58.996 152.008 59.692 153.184L58.216 154.768C56.872 152.704 54.868 151.672 52.204 151.672C49.612 151.672 47.596 152.608 46.156 154.48C44.74 156.352 44.032 158.992 44.032 162.4C44.032 165.76 44.728 168.388 46.12 170.284C47.536 172.18 49.492 173.128 51.988 173.128C54.868 173.128 56.944 172.096 58.216 170.032L59.692 171.616C59.02 172.792 58 173.716 56.632 174.388C55.264 175.036 53.704 175.36 51.952 175.36ZM70.6422 175.36C68.9142 175.36 67.4022 174.976 66.1062 174.208C64.8342 173.44 63.8502 172.348 63.1542 170.932C62.4582 169.516 62.1102 167.872 62.1102 166C62.1102 164.128 62.4582 162.484 63.1542 161.068C63.8502 159.652 64.8342 158.56 66.1062 157.792C67.4022 157.024 68.9142 156.64 70.6422 156.64C72.3702 156.64 73.8702 157.024 75.1422 157.792C76.4382 158.56 77.4342 159.652 78.1302 161.068C78.8262 162.484 79.1742 164.128 79.1742 166C79.1742 167.872 78.8262 169.516 78.1302 170.932C77.4342 172.348 76.4382 173.44 75.1422 174.208C73.8702 174.976 72.3702 175.36 70.6422 175.36ZM70.6422 173.38C72.4902 173.38 73.9542 172.72 75.0342 171.4C76.1382 170.056 76.6902 168.256 76.6902 166C76.6902 163.744 76.1382 161.956 75.0342 160.636C73.9542 159.292 72.4902 158.62 70.6422 158.62C68.7942 158.62 67.3182 159.292 66.2142 160.636C65.1342 161.956 64.5942 163.744 64.5942 166C64.5942 168.256 65.1342 170.056 66.2142 171.4C67.3182 172.72 68.7942 173.38 70.6422 173.38ZM86.8712 175.36C84.4472 175.36 83.2352 173.86 83.2352 170.86V148.288H85.7552V170.824C85.7552 171.784 85.8872 172.456 86.1512 172.84C86.4392 173.224 86.9312 173.416 87.6272 173.416C88.1072 173.416 88.6832 173.284 89.3552 173.02L89.7872 174.568C88.9232 175.096 87.9512 175.36 86.8712 175.36ZM98.5374 175.36C96.7854 175.36 95.3454 174.856 94.2174 173.848C93.0894 172.816 92.5254 171.496 92.5254 169.888C92.5254 168.112 93.1854 166.732 94.5054 165.748C95.8494 164.74 97.7214 164.236 100.121 164.236H104.153V163.264C104.153 161.776 103.769 160.648 103.001 159.88C102.257 159.088 101.153 158.692 99.6894 158.692C98.6094 158.692 97.6134 158.932 96.7014 159.412C95.8134 159.868 95.0934 160.54 94.5414 161.428L93.1734 159.844C93.9414 158.812 94.8894 158.02 96.0174 157.468C97.1454 156.916 98.4174 156.64 99.8334 156.64C102.017 156.64 103.697 157.192 104.873 158.296C106.073 159.4 106.673 160.96 106.673 162.976V171.616C106.673 172.504 106.805 173.632 107.069 175H104.909C104.741 174.472 104.585 173.584 104.441 172.336H104.369C103.697 173.296 102.857 174.04 101.849 174.568C100.841 175.096 99.7374 175.36 98.5374 175.36ZM98.7894 173.344C99.7494 173.344 100.637 173.152 101.453 172.768C102.269 172.384 102.917 171.868 103.397 171.22C103.901 170.548 104.153 169.84 104.153 169.096V166.144H100.013C98.4054 166.144 97.1574 166.468 96.2694 167.116C95.4054 167.764 94.9734 168.688 94.9734 169.888C94.9734 170.92 95.3214 171.76 96.0174 172.408C96.7134 173.032 97.6374 173.344 98.7894 173.344ZM111.885 161.392C111.885 159.352 111.849 157.888 111.777 157H114.081C114.177 157.936 114.225 158.992 114.225 160.168V160.6H114.297C114.753 159.328 115.461 158.356 116.421 157.684C117.405 156.988 118.545 156.64 119.841 156.64C120.273 156.64 120.621 156.676 120.885 156.748V158.836C120.501 158.788 120.105 158.764 119.697 158.764C118.713 158.764 117.813 159.064 116.997 159.664C116.181 160.264 115.533 161.092 115.053 162.148C114.597 163.204 114.369 164.368 114.369 165.64V175H111.885V161.392ZM138.308 167.008H125.204C125.348 169 125.912 170.536 126.896 171.616C127.904 172.696 129.26 173.236 130.964 173.236C132.044 173.236 133.028 173.008 133.916 172.552C134.804 172.072 135.536 171.412 136.112 170.572L137.588 171.976C136.892 173.056 135.956 173.896 134.78 174.496C133.628 175.072 132.332 175.36 130.892 175.36C128.324 175.36 126.308 174.544 124.844 172.912C123.404 171.256 122.684 168.964 122.684 166.036C122.684 163.108 123.392 160.816 124.808 159.16C126.248 157.48 128.228 156.64 130.748 156.64C133.124 156.64 134.972 157.444 136.292 159.052C137.636 160.66 138.308 162.904 138.308 165.784V167.008ZM136.004 164.776C136.004 162.904 135.524 161.428 134.564 160.348C133.604 159.244 132.308 158.692 130.676 158.692C129.044 158.692 127.748 159.244 126.788 160.348C125.852 161.452 125.324 163.024 125.204 165.064H136.004V164.776ZM147.427 175.36C146.155 175.36 144.991 175.096 143.935 174.568C142.903 174.04 142.159 173.344 141.703 172.48L143.359 171.328C143.791 172 144.367 172.516 145.087 172.876C145.807 173.212 146.623 173.38 147.535 173.38C148.615 173.38 149.503 173.068 150.199 172.444C150.895 171.796 151.243 170.98 151.243 169.996C151.243 169.204 150.955 168.544 150.379 168.016C149.827 167.464 148.855 166.924 147.463 166.396C145.471 165.652 144.067 164.884 143.251 164.092C142.459 163.3 142.063 162.316 142.063 161.14C142.063 159.796 142.591 158.716 143.647 157.9C144.703 157.06 146.107 156.64 147.859 156.64C148.987 156.64 150.019 156.892 150.955 157.396C151.915 157.9 152.623 158.584 153.079 159.448L151.495 160.6C150.679 159.28 149.455 158.62 147.823 158.62C146.863 158.62 146.071 158.848 145.447 159.304C144.847 159.76 144.547 160.348 144.547 161.068C144.547 161.764 144.847 162.364 145.447 162.868C146.047 163.348 147.163 163.888 148.795 164.488C150.571 165.184 151.843 165.952 152.611 166.792C153.379 167.632 153.763 168.676 153.763 169.924C153.763 171.556 153.187 172.876 152.035 173.884C150.883 174.868 149.347 175.36 147.427 175.36Z" fill="#A07E03"/>
</svg>
