<svg width="24" height="24" viewBox="0 0 24 24" fill="none" xmlns="http://www.w3.org/2000/svg">
<path d="M5.4 19.6002C4.65 18.8502 4.0625 17.9835 3.6375 17.0002C3.2125 16.0168 3 15.0002 3 13.9502C3 12.9002 3.2 11.8627 3.6 10.8377C4 9.81267 4.65 8.85017 5.55 7.95017C6.55 6.95017 7.9625 6.19184 9.7875 5.67517C11.6125 5.15851 13.975 4.94184 16.875 5.02517C17.3083 5.04184 17.7083 5.13351 18.075 5.30017C18.4417 5.46684 18.7667 5.69184 19.05 5.97517C19.3333 6.25851 19.5583 6.58767 19.725 6.96267C19.8917 7.33767 19.9833 7.74184 20 8.17517C20.0333 9.54184 19.9958 10.8043 19.8875 11.9627C19.7792 13.121 19.6042 14.1668 19.3625 15.1002C19.1208 16.0335 18.8125 16.8627 18.4375 17.5877C18.0625 18.3127 17.6167 18.9335 17.1 19.4502C16.2167 20.3335 15.2792 20.9793 14.2875 21.3877C13.2958 21.796 12.2833 22.0002 11.25 22.0002C10.1667 22.0002 9.10833 21.7877 8.075 21.3627C7.04167 20.9377 6.15 20.3502 5.4 19.6002ZM8.2 19.2002C8.68333 19.4835 9.17917 19.6877 9.6875 19.8127C10.1958 19.9377 10.7167 20.0002 11.25 20.0002C12.0167 20.0002 12.775 19.846 13.525 19.5377C14.275 19.2293 14.9917 18.7335 15.675 18.0502C15.975 17.7502 16.2792 17.3293 16.5875 16.7877C16.8958 16.246 17.1625 15.5377 17.3875 14.6627C17.6125 13.7877 17.7833 12.7293 17.9 11.4877C18.0167 10.246 18.0333 8.76684 17.95 7.05017C17.1333 7.01684 16.2125 7.00434 15.1875 7.01267C14.1625 7.02101 13.1417 7.10017 12.125 7.25017C11.1083 7.40017 10.1417 7.64184 9.225 7.97517C8.30833 8.30851 7.55833 8.76684 6.975 9.35017C6.225 10.1002 5.70833 10.8418 5.425 11.5752C5.14167 12.3085 5 13.0168 5 13.7002C5 14.6835 5.1875 15.546 5.5625 16.2877C5.9375 17.0293 6.26667 17.5502 6.55 17.8502C7.25 16.5168 8.175 15.2377 9.325 14.0127C10.475 12.7877 11.8167 11.7835 13.35 11.0002C12.15 12.0502 11.1042 13.2377 10.2125 14.5627C9.32083 15.8877 8.65 17.4335 8.2 19.2002Z" fill="#897D05"/>
</svg>
