<svg width="265" height="68" viewBox="0 0 265 68" fill="none" xmlns="http://www.w3.org/2000/svg">
<path d="M8.88002 49.44C13.104 49.44 17.376 48.32 21.696 46.08C13.728 43.904 8.81603 42.816 6.96003 42.816C5.10403 42.816 3.76003 43.072 2.92803 43.584C2.12802 44.096 1.72802 44.8 1.72802 45.696C1.72802 46.56 2.36802 47.392 3.64803 48.192C4.96003 49.024 6.70403 49.44 8.88002 49.44ZM33.984 47.76C38.624 48.752 42.224 49.248 44.784 49.248C47.376 49.248 49.584 48.832 51.408 48C53.232 47.136 54.144 46.176 54.144 45.12C54.144 44.352 53.584 43.712 52.464 43.2C51.344 42.656 49.712 42.384 47.568 42.384C44.176 42.384 41.328 42.88 39.024 43.872C36.72 44.864 35.04 46.16 33.984 47.76ZM56.16 16.608C53.984 18.624 51.296 21.36 48.096 24.816C44.928 28.24 42.608 30.704 41.136 32.208C41.456 32.24 41.952 32.256 42.624 32.256C45.248 32.256 48.08 31.584 51.12 30.24C54.192 28.896 56.896 27.296 59.232 25.44C61.6 23.584 63.568 21.664 65.136 19.68C66.736 17.664 67.536 16 67.536 14.688C67.536 13.12 66.4 12.336 64.128 12.336C61.856 12.336 59.2 13.76 56.16 16.608ZM52.416 9.88804C52.416 7.74404 50.672 6.67204 47.184 6.67204C45.264 6.67204 43.28 7.13604 41.232 8.06404C39.216 8.96004 37.488 10.144 36.048 11.616C34.608 13.088 33.44 14.72 32.544 16.512C31.648 18.304 31.12 20.08 30.96 21.84C31.792 21.904 32.464 21.936 32.976 21.936C35.632 21.936 38.208 21.52 40.704 20.688C43.2 19.856 45.28 18.832 46.944 17.616C48.608 16.368 49.936 15.056 50.928 13.68C51.92 12.272 52.416 11.008 52.416 9.88804ZM24.624 45.552C26.96 46.128 29.744 46.8 32.976 47.568C34.032 45.84 35.824 44.448 38.352 43.392C40.912 42.304 44.144 41.76 48.048 41.76C50.352 41.76 52.176 42.112 53.52 42.816C54.896 43.52 55.584 44.368 55.584 45.36C55.584 46.576 54.544 47.648 52.464 48.576C50.416 49.504 47.728 49.968 44.4 49.968C41.104 49.968 37.424 49.584 33.36 48.816C33.04 49.584 32.88 50.416 32.88 51.312C32.88 53.392 33.888 55.168 35.904 56.64C37.952 58.144 40.784 58.896 44.4 58.896L44.592 59.28C44.016 59.344 43.584 59.376 43.296 59.376C39.872 59.376 37.12 58.544 35.04 56.88C32.992 55.248 31.968 53.312 31.968 51.072C31.968 50.208 32.128 49.408 32.448 48.672C29.28 48 26.112 47.248 22.944 46.416C18.08 48.848 13.232 50.064 8.40003 50.064C6.00003 50.064 4.04802 49.584 2.54402 48.624C1.04002 47.696 0.288025 46.704 0.288025 45.648C0.288025 44.592 0.864025 43.744 2.01603 43.104C3.16803 42.432 4.88003 42.096 7.15203 42.096C9.45603 42.096 14.832 43.136 23.28 45.216C27.696 42.656 32.704 38.464 38.304 32.64C35.52 32.032 33.424 30.816 32.016 28.992C30.608 27.136 29.904 24.944 29.904 22.416V22.32C27.28 22.032 25.328 21.28 24.048 20.064C22.8 18.848 22.176 17.344 22.176 15.552C22.176 12.512 23.744 9.40804 26.88 6.24004C30.016 3.04004 33.744 1.00804 38.064 0.144043L38.208 0.576043C33.888 1.47204 30.256 3.40804 27.312 6.38404C24.368 9.32804 22.896 12.24 22.896 15.12C22.896 16.816 23.472 18.256 24.624 19.44C25.776 20.592 27.536 21.36 29.904 21.744C30 19.824 30.496 17.936 31.392 16.08C32.288 14.192 33.472 12.48 34.944 10.944C36.448 9.37604 38.336 8.11204 40.608 7.15204C42.88 6.19204 45.152 5.71204 47.424 5.71204C51.584 5.71204 53.664 7.00804 53.664 9.60004C53.664 10.848 53.136 12.224 52.08 13.728C51.024 15.2 49.6 16.592 47.808 17.904C46.048 19.184 43.808 20.272 41.088 21.168C38.4 22.032 35.568 22.464 32.592 22.464C31.824 22.464 31.264 22.448 30.912 22.416V22.896C30.912 25.168 31.568 27.12 32.88 28.752C34.224 30.352 36.256 31.408 38.976 31.92C40 30.864 41.504 29.248 43.488 27.072C45.504 24.896 47.024 23.264 48.048 22.176C49.104 21.088 50.48 19.744 52.176 18.144C53.872 16.544 55.296 15.36 56.448 14.592C59.488 12.608 62.192 11.616 64.56 11.616C67.6 11.616 69.12 12.624 69.12 14.64C69.12 16.112 68.288 17.904 66.624 20.016C64.992 22.128 62.928 24.144 60.432 26.064C57.936 27.984 55.008 29.632 51.648 31.008C48.32 32.352 45.136 33.024 42.096 33.024C41.328 33.024 40.768 33.008 40.416 32.976C34.688 38.704 29.424 42.896 24.624 45.552Z" fill="#3D3D3D"/>
<path d="M64.224 39.504C64.384 39.376 64.816 39.344 65.52 39.408C65.872 39.472 66.048 39.552 66.048 39.648C66.048 39.712 65.968 39.84 65.808 40.032C65.648 40.224 64.88 40.992 63.504 42.336C60.656 45.12 59.232 46.864 59.232 47.568C59.232 47.728 59.328 47.808 59.52 47.808C60.608 47.808 64.56 45.504 71.376 40.896L72.672 39.84C72.832 39.712 73.136 39.664 73.584 39.696C74.032 39.728 74.256 39.888 74.256 40.176C74.256 40.304 74.208 40.416 74.112 40.512C69.632 44.544 67.392 46.976 67.392 47.808C67.392 48.16 67.648 48.336 68.16 48.336C68.672 48.336 69.36 48.144 70.224 47.76C71.088 47.376 71.856 46.992 72.528 46.608C73.2 46.192 74 45.696 74.928 45.12C75.888 44.512 76.4 44.192 76.464 44.16L76.56 44.88C75.088 45.84 73.408 46.8 71.52 47.76C69.632 48.72 68.192 49.2 67.2 49.2C66.24 49.2 65.76 48.8 65.76 48C65.76 46.88 66.624 45.424 68.352 43.632C63.328 46.896 60.224 48.528 59.04 48.528C58.336 48.528 57.984 48.112 57.984 47.28C57.984 45.52 60.064 42.928 64.224 39.504Z" fill="#3D3D3D"/>
<path d="M81.0465 41.904C79.5105 42.992 77.8945 44.064 76.1985 45.12L76.0545 44.448L80.6145 41.28C82.1825 40.16 83.3825 39.6 84.2145 39.6C85.0465 39.6 85.4625 39.952 85.4625 40.656C85.4625 41.712 84.7265 42.976 83.2545 44.448L84.0705 43.968C88.4545 41.12 91.1905 39.696 92.2785 39.696C93.3665 39.696 93.9105 39.984 93.9105 40.56C93.9105 41.2 93.3985 42.208 92.3745 43.584C96.0225 41.056 98.9505 39.792 101.159 39.792C102.023 39.792 102.455 40.16 102.455 40.896C102.455 41.632 102.135 42.4 101.495 43.2C100.855 43.968 100.151 44.64 99.3825 45.216C97.3345 46.688 96.3105 47.616 96.3105 48C96.3105 48.224 96.4865 48.336 96.8385 48.336C97.2225 48.336 97.8465 48.144 98.7105 47.76C99.5745 47.376 100.343 46.992 101.015 46.608C101.687 46.192 102.487 45.696 103.415 45.12C104.375 44.512 104.887 44.192 104.951 44.16L105.047 44.88C100.727 47.76 97.7025 49.2 95.9745 49.2C95.1425 49.2 94.7265 48.8 94.7265 48C94.7265 47.456 95.0625 46.816 95.7345 46.08C96.4385 45.312 97.1905 44.608 97.9905 43.968C100.199 42.304 101.303 41.2 101.303 40.656C101.303 40.496 101.127 40.416 100.775 40.416C99.5905 40.416 97.8305 41.056 95.4945 42.336C93.1585 43.616 90.5665 45.696 87.7185 48.576C87.5265 48.768 87.1105 48.864 86.4705 48.864C85.8625 48.864 85.5585 48.72 85.5585 48.432C85.5585 48.304 86.1185 47.712 87.2385 46.656C90.6625 43.424 92.3745 41.456 92.3745 40.752C92.3745 40.56 92.2625 40.464 92.0385 40.464C91.3025 40.464 89.6865 41.28 87.1905 42.912C84.7265 44.512 82.1985 46.384 79.6065 48.528C79.2225 48.752 78.9185 48.864 78.6945 48.864C77.7025 48.864 77.2065 48.752 77.2065 48.528C77.2065 48.4 77.6385 47.952 78.5025 47.184C79.3985 46.416 80.5825 45.264 82.0545 43.728C83.5585 42.16 84.3105 41.072 84.3105 40.464C84.3105 40.336 84.2305 40.272 84.0705 40.272C83.4945 40.272 82.4865 40.816 81.0465 41.904Z" fill="#3D3D3D"/>
<path d="M114.732 35.328C114.732 35.776 114.476 36.208 113.964 36.624C113.452 37.04 112.972 37.248 112.524 37.248C112.108 37.248 111.9 37.072 111.9 36.72C111.9 36.368 112.156 35.968 112.668 35.52C113.18 35.04 113.644 34.8 114.06 34.8C114.508 34.8 114.732 34.976 114.732 35.328ZM110.652 40.512C106.332 44.416 104.172 46.864 104.172 47.856C104.172 48.176 104.396 48.336 104.844 48.336C105.26 48.336 105.9 48.144 106.764 47.76C107.628 47.376 108.396 46.992 109.068 46.608C109.74 46.192 110.54 45.696 111.468 45.12C112.428 44.512 112.94 44.192 113.004 44.16L113.1 44.88C111.628 45.84 109.948 46.8 108.06 47.76C106.172 48.72 104.748 49.2 103.788 49.2C102.796 49.2 102.3 48.8 102.3 48C102.3 47.328 102.876 46.32 104.028 44.976C105.18 43.6 106.332 42.4 107.484 41.376L109.212 39.84C109.372 39.712 109.676 39.664 110.124 39.696C110.572 39.728 110.796 39.888 110.796 40.176C110.796 40.304 110.748 40.416 110.652 40.512Z" fill="#3D3D3D"/>
<path d="M121.258 39.36C121.93 39.36 122.266 39.728 122.266 40.464C122.266 41.168 121.754 42.208 120.73 43.584C124.378 41.056 127.306 39.792 129.514 39.792C130.378 39.792 130.81 40.16 130.81 40.896C130.81 41.632 130.49 42.4 129.85 43.2C129.21 43.968 128.506 44.64 127.738 45.216C125.69 46.688 124.666 47.616 124.666 48C124.666 48.224 124.842 48.336 125.194 48.336C125.578 48.336 126.202 48.144 127.066 47.76C127.93 47.376 128.698 46.992 129.37 46.608C130.042 46.192 130.842 45.696 131.77 45.12C132.73 44.512 133.242 44.192 133.306 44.16L133.402 44.88C129.082 47.76 126.058 49.2 124.33 49.2C123.498 49.2 123.082 48.8 123.082 48C123.082 47.456 123.418 46.816 124.09 46.08C124.794 45.312 125.546 44.608 126.346 43.968C128.554 42.304 129.658 41.2 129.658 40.656C129.658 40.496 129.482 40.416 129.13 40.416C127.946 40.416 126.186 41.056 123.85 42.336C121.514 43.616 118.922 45.696 116.074 48.576C115.882 48.768 115.514 48.864 114.97 48.864C114.458 48.864 114.202 48.72 114.202 48.432C114.202 48.336 115.306 47.152 117.514 44.88C119.722 42.608 120.826 41.136 120.826 40.464C120.826 40.304 120.714 40.224 120.49 40.224C120.298 40.224 119.866 40.432 119.194 40.848C118.554 41.264 117.546 41.936 116.17 42.864C114.826 43.76 113.674 44.512 112.714 45.12L112.57 44.448C113.05 44.128 113.706 43.68 114.538 43.104C115.37 42.528 116.058 42.064 116.602 41.712C117.146 41.328 117.738 40.928 118.378 40.512C119.626 39.744 120.586 39.36 121.258 39.36Z" fill="#3D3D3D"/>
<path d="M134.451 48.384C136.755 48.384 138.995 47.232 141.171 44.928V44.88C141.171 43.344 141.907 41.904 143.379 40.56C143.283 40.208 143.011 40.032 142.563 40.032C140.195 40.032 138.099 40.928 136.275 42.72C134.451 44.48 133.539 46.032 133.539 47.376C133.539 48.048 133.843 48.384 134.451 48.384ZM141.891 39.312C143.587 39.312 144.435 39.872 144.435 40.992C144.435 41.952 143.843 43.104 142.659 44.448V44.832C142.659 45.888 143.123 46.416 144.051 46.416C144.627 46.416 145.267 46.176 145.971 45.696L148.323 44.16L148.419 44.88L146.211 46.272C145.187 46.944 144.179 47.28 143.187 47.28C142.227 47.28 141.587 46.784 141.267 45.792C138.707 48.064 136.275 49.2 133.971 49.2C132.595 49.2 131.907 48.544 131.907 47.232C131.907 45.568 132.883 43.84 134.835 42.048C136.787 40.224 139.139 39.312 141.891 39.312Z" fill="#3D3D3D"/>
<path d="M156.122 38.352C156.25 38.16 156.394 38.064 156.554 38.064C156.746 38.064 156.842 38.16 156.842 38.352C156.842 38.544 156.746 38.736 156.554 38.928C156.362 39.12 156.218 39.712 156.122 40.704C156.058 41.664 155.818 42.848 155.402 44.256C154.986 45.632 154.266 46.88 153.242 48C153.242 48.064 153.306 48.096 153.434 48.096C153.658 48.096 154.474 47.712 155.882 46.944L156.554 46.608C157.77 45.936 159.066 45.12 160.442 44.16L160.538 44.88C155.546 48.112 151.722 49.728 149.066 49.728C148.01 49.728 147.242 49.504 146.762 49.056C146.25 48.608 145.994 48.112 145.994 47.568C145.994 47.024 146.122 46.592 146.378 46.272C146.634 45.92 146.954 45.744 147.338 45.744C147.818 45.744 148.058 46 148.058 46.512C148.058 46.832 147.802 47.12 147.29 47.376C147.13 47.472 147.05 47.632 147.05 47.856C147.05 48.08 147.242 48.336 147.626 48.624C147.978 48.944 148.362 49.104 148.778 49.104C150.186 49.104 151.386 48.224 152.378 46.464C153.402 44.672 154.058 42.896 154.346 41.136V40.992C151.242 43.104 149.146 44.48 148.058 45.12L147.914 44.448C153.13 41.088 155.866 39.056 156.122 38.352Z" fill="#3D3D3D"/>
<path d="M160.68 48.096C161.896 48.096 163.512 47.488 165.528 46.272C167.576 45.024 169.272 43.824 170.616 42.672C171.992 41.52 172.68 40.848 172.68 40.656C172.68 40.464 172.44 40.304 171.96 40.176C171.512 40.048 170.888 39.984 170.088 39.984C169.288 39.984 168.232 40.304 166.92 40.944C165.608 41.552 164.472 42.288 163.512 43.152C162.552 44.016 161.752 44.864 161.112 45.696C160.472 46.528 160.152 47.136 160.152 47.52C160.152 47.904 160.328 48.096 160.68 48.096ZM173.544 40.032C174.184 39.52 174.536 39.264 174.6 39.264C175.464 39.36 175.912 39.44 175.944 39.504C175.976 39.536 175.992 39.584 175.992 39.648C175.992 39.712 175.864 39.92 175.608 40.272C175.352 40.592 174.6 41.376 173.352 42.624C170.248 45.664 168.696 47.504 168.696 48.144C168.696 48.4 168.808 48.528 169.032 48.528C170.568 48.528 173.448 47.072 177.672 44.16L177.768 44.88C173.512 47.664 170.504 49.056 168.744 49.056C167.88 49.056 167.448 48.656 167.448 47.856C167.448 47.024 167.944 45.952 168.936 44.64C165.16 47.424 162.216 48.832 160.104 48.864C159.336 48.864 158.952 48.4 158.952 47.472C158.952 45.808 160.008 44.032 162.12 42.144C164.264 40.256 167.08 39.312 170.568 39.312C171.72 39.312 172.712 39.552 173.544 40.032Z" fill="#3D3D3D"/>
<path d="M238.716 11.376C235.772 11.376 232.348 12.864 228.444 15.84L231.18 15.648C233.196 15.52 234.94 15.248 236.412 14.832C239.1 14.064 240.444 13.216 240.444 12.288C240.444 11.68 239.868 11.376 238.716 11.376ZM187.356 58.608C188.028 58.8 188.828 58.896 189.756 58.896C192.316 58.896 195.02 58.272 197.868 57.024C200.748 55.808 203.1 54.368 204.924 52.704C206.78 51.04 207.708 49.552 207.708 48.24C207.708 46.352 205.676 45.408 201.612 45.408C201.1 45.408 200.716 45.424 200.46 45.456C195.18 51.28 190.812 55.664 187.356 58.608ZM195.228 29.424C195.228 30.672 195.708 31.68 196.668 32.448C197.628 33.184 199.036 33.552 200.892 33.552C202.748 33.552 204.844 32.736 207.18 31.104C209.548 29.472 211.532 27.456 213.132 25.056C214.764 22.624 215.58 20.368 215.58 18.288L215.532 17.52C208.972 18.288 203.948 19.872 200.46 22.272C196.972 24.64 195.228 27.024 195.228 29.424ZM183.036 56.784L183.468 56.496C183.852 56.944 184.428 57.376 185.196 57.792C188.396 54.848 192.38 50.848 197.148 45.792C193.788 46.336 190.204 47.44 186.396 49.104C182.588 50.8 179.228 52.624 176.316 54.576C173.404 56.528 170.988 58.48 169.068 60.432C167.116 62.384 166.14 63.968 166.14 65.184C166.14 66.4 167.26 67.008 169.5 67.008C173.148 67.008 178.172 64.128 184.572 58.368C183.74 57.888 183.228 57.36 183.036 56.784ZM200.844 45.024C201.1 44.992 201.5 44.976 202.044 44.976C206.812 44.976 209.196 46.032 209.196 48.144C209.196 49.552 208.172 51.136 206.124 52.896C204.108 54.688 201.5 56.224 198.3 57.504C195.132 58.816 192.108 59.472 189.228 59.472C188.204 59.472 187.34 59.376 186.636 59.184C179.948 64.848 174.06 67.68 168.972 67.68C166.7 67.68 165.564 66.912 165.564 65.376C165.564 64.32 166.124 63.008 167.244 61.44C168.332 59.872 169.9 58.24 171.948 56.544C173.996 54.848 176.316 53.216 178.908 51.648C181.468 50.112 184.412 48.768 187.74 47.616C191.068 46.432 194.38 45.648 197.676 45.264C198.476 44.4 200.028 42.72 202.332 40.224C204.668 37.696 206.364 35.872 207.42 34.752C208.476 33.632 210.012 32.032 212.028 29.952C214.044 27.84 215.708 26.144 217.02 24.864C220.7 21.344 223.74 18.672 226.14 16.848C225.084 16.944 223.516 17.024 221.436 17.088C219.356 17.152 217.612 17.264 216.204 17.424C216.236 17.584 216.252 17.824 216.252 18.144C216.252 19.808 215.756 21.6 214.764 23.52C213.772 25.44 212.508 27.184 210.972 28.752C209.468 30.288 207.724 31.584 205.74 32.64C203.788 33.664 201.9 34.176 200.076 34.176C198.284 34.176 196.812 33.68 195.66 32.688C194.54 31.664 193.98 30.464 193.98 29.088C193.98 27.712 194.38 26.4 195.18 25.152C195.98 23.904 197.18 22.688 198.78 21.504C200.38 20.32 202.604 19.28 205.452 18.384C208.3 17.456 211.58 16.816 215.292 16.464C214.3 13.232 210.764 11.616 204.684 11.616C203.084 11.616 201.388 11.888 199.596 12.432C197.836 12.976 196.252 13.632 194.844 14.4C191.996 16 189.772 17.456 188.172 18.768L187.212 19.584L186.924 19.008C187.468 18.464 188.54 17.632 190.14 16.512C191.74 15.392 193.212 14.48 194.556 13.776C195.932 13.072 197.596 12.432 199.548 11.856C201.5 11.28 203.388 10.992 205.212 10.992C211.452 10.992 215.052 12.8 216.012 16.416C217.612 16.256 219.228 16.16 220.86 16.128C222.524 16.096 224.716 16.016 227.436 15.888C232.236 12.4 236.284 10.656 239.58 10.656C241.276 10.656 242.124 10.992 242.124 11.664C242.124 12.528 240.956 13.504 238.62 14.592C236.316 15.648 233.644 16.288 230.604 16.512C229.132 16.64 228.012 16.72 227.244 16.752C225.356 18.288 223.228 20.256 220.86 22.656C218.492 25.056 216.428 27.264 214.668 29.28C212.908 31.264 210.54 33.952 207.564 37.344C204.62 40.736 202.38 43.296 200.844 45.024Z" fill="#3D3D3D"/>
<path d="M225.014 35.04L218.39 37.776L218.198 37.296C218.998 36.816 220.342 36.096 222.23 35.136C224.15 34.176 225.222 33.696 225.446 33.696C225.67 33.696 225.782 33.888 225.782 34.272C225.782 34.624 225.526 34.88 225.014 35.04ZM213.014 48.384C215.318 48.384 217.558 47.232 219.734 44.928V44.88C219.734 43.344 220.47 41.904 221.942 40.56C221.846 40.208 221.574 40.032 221.126 40.032C218.758 40.032 216.662 40.928 214.838 42.72C213.014 44.48 212.102 46.032 212.102 47.376C212.102 48.048 212.406 48.384 213.014 48.384ZM220.454 39.312C222.15 39.312 222.998 39.872 222.998 40.992C222.998 41.952 222.406 43.104 221.222 44.448V44.832C221.222 45.888 221.686 46.416 222.614 46.416C223.19 46.416 223.83 46.176 224.534 45.696L226.886 44.16L226.982 44.88L224.774 46.272C223.75 46.944 222.742 47.28 221.75 47.28C220.79 47.28 220.15 46.784 219.83 45.792C217.27 48.064 214.838 49.2 212.534 49.2C211.158 49.2 210.47 48.544 210.47 47.232C210.47 45.568 211.446 43.84 213.398 42.048C215.35 40.224 217.702 39.312 220.454 39.312Z" fill="#3D3D3D"/>
<path d="M236.7 35.328C236.7 35.776 236.444 36.208 235.932 36.624C235.42 37.04 234.94 37.248 234.492 37.248C234.076 37.248 233.868 37.072 233.868 36.72C233.868 36.368 234.124 35.968 234.636 35.52C235.148 35.04 235.612 34.8 236.028 34.8C236.476 34.8 236.7 34.976 236.7 35.328ZM232.62 40.512C228.3 44.416 226.14 46.864 226.14 47.856C226.14 48.176 226.364 48.336 226.812 48.336C227.228 48.336 227.868 48.144 228.732 47.76C229.596 47.376 230.364 46.992 231.036 46.608C231.708 46.192 232.508 45.696 233.436 45.12C234.396 44.512 234.908 44.192 234.972 44.16L235.068 44.88C233.596 45.84 231.916 46.8 230.028 47.76C228.14 48.72 226.716 49.2 225.756 49.2C224.764 49.2 224.268 48.8 224.268 48C224.268 47.328 224.844 46.32 225.996 44.976C227.148 43.6 228.3 42.4 229.452 41.376L231.18 39.84C231.34 39.712 231.644 39.664 232.092 39.696C232.54 39.728 232.764 39.888 232.764 40.176C232.764 40.304 232.716 40.416 232.62 40.512Z" fill="#3D3D3D"/>
<path d="M235.211 48.096C236.427 48.096 238.043 47.488 240.059 46.272C242.107 45.024 243.803 43.824 245.147 42.672C246.523 41.52 247.211 40.848 247.211 40.656C247.211 40.464 246.971 40.304 246.491 40.176C246.043 40.048 245.419 39.984 244.619 39.984C243.819 39.984 242.763 40.304 241.451 40.944C240.139 41.552 239.003 42.288 238.043 43.152C237.083 44.016 236.283 44.864 235.643 45.696C235.003 46.528 234.683 47.136 234.683 47.52C234.683 47.904 234.859 48.096 235.211 48.096ZM248.075 40.032C248.715 39.52 249.067 39.264 249.131 39.264C249.995 39.36 250.443 39.44 250.475 39.504C250.507 39.536 250.523 39.584 250.523 39.648C250.523 39.712 250.395 39.92 250.139 40.272C249.883 40.592 249.131 41.376 247.883 42.624C244.779 45.664 243.227 47.504 243.227 48.144C243.227 48.4 243.339 48.528 243.563 48.528C245.099 48.528 247.979 47.072 252.203 44.16L252.299 44.88C248.043 47.664 245.035 49.056 243.275 49.056C242.411 49.056 241.979 48.656 241.979 47.856C241.979 47.024 242.475 45.952 243.467 44.64C239.691 47.424 236.747 48.832 234.635 48.864C233.867 48.864 233.483 48.4 233.483 47.472C233.483 45.808 234.539 44.032 236.651 42.144C238.795 40.256 241.611 39.312 245.099 39.312C246.251 39.312 247.243 39.552 248.075 40.032Z" fill="#3D3D3D"/>
<path d="M259.997 38.352C260.125 38.16 260.269 38.064 260.429 38.064C260.621 38.064 260.717 38.16 260.717 38.352C260.717 38.544 260.621 38.736 260.429 38.928C260.237 39.12 260.093 39.712 259.997 40.704C259.933 41.664 259.693 42.848 259.277 44.256C258.861 45.632 258.141 46.88 257.117 48C257.117 48.064 257.181 48.096 257.309 48.096C257.533 48.096 258.349 47.712 259.757 46.944L260.429 46.608C261.645 45.936 262.941 45.12 264.317 44.16L264.413 44.88C259.421 48.112 255.597 49.728 252.941 49.728C251.885 49.728 251.117 49.504 250.637 49.056C250.125 48.608 249.869 48.112 249.869 47.568C249.869 47.024 249.997 46.592 250.253 46.272C250.509 45.92 250.829 45.744 251.213 45.744C251.693 45.744 251.933 46 251.933 46.512C251.933 46.832 251.677 47.12 251.165 47.376C251.005 47.472 250.925 47.632 250.925 47.856C250.925 48.08 251.117 48.336 251.501 48.624C251.853 48.944 252.237 49.104 252.653 49.104C254.061 49.104 255.261 48.224 256.253 46.464C257.277 44.672 257.933 42.896 258.221 41.136V40.992C255.117 43.104 253.021 44.48 251.933 45.12L251.789 44.448C257.005 41.088 259.741 39.056 259.997 38.352Z" fill="#3D3D3D"/>
</svg>
