<svg width="30" height="30" viewBox="0 0 30 30" fill="none" xmlns="http://www.w3.org/2000/svg">
<path d="M3 4.2002C1.35 4.2002 0 5.5502 0 7.2002V22.8002C0 24.4502 1.35 25.8002 3 25.8002H27C28.65 25.8002 30 24.4502 30 22.8002V7.2002C30 5.5502 28.65 4.2002 27 4.2002H3ZM3 5.4002H27C28.0008 5.4002 28.8 6.19941 28.8 7.2002V22.8002C28.8 23.801 28.0008 24.6002 27 24.6002H3C1.99922 24.6002 1.2 23.801 1.2 22.8002V7.2002C1.2 6.19941 1.99922 5.4002 3 5.4002ZM10.2 7.8002C6.22969 7.8002 3 11.0299 3 15.0002C3 18.9705 6.22969 22.2002 10.2 22.2002C12.0469 22.2002 13.725 21.49 15 20.3439C16.275 21.49 17.9555 22.2002 19.8 22.2002C23.7703 22.2002 27 18.9705 27 15.0002C27 11.0299 23.7703 7.8002 19.8 7.8002C17.9555 7.8002 16.275 8.51035 15 9.65645C13.725 8.51035 12.0469 7.8002 10.2 7.8002ZM19.8 9.0002C23.1211 9.0002 25.8 11.6791 25.8 15.0002C25.8 18.3213 23.1211 21.0002 19.8 21.0002C18.2695 21.0002 16.8656 20.44 15.8063 19.5002C16.7977 18.265 17.4 16.7041 17.4 15.0002C17.4 13.2963 16.7977 11.7354 15.8063 10.5002C16.8656 9.56035 18.2695 9.0002 19.8 9.0002Z" fill="#7A6F00"/>
</svg>
