<svg width="30" height="30" viewBox="0 0 30 30" fill="none" xmlns="http://www.w3.org/2000/svg">
<g clip-path="url(#clip0_88_89)">
<path d="M15 0.0234375C13.704 0.0234375 12.4797 0.528094 11.5617 1.44609L5.80783 7.2H7.75783C8.71783 7.2 9.62397 7.57186 10.302 8.25586L14.3637 12.3176C14.7117 12.6656 15.2883 12.6657 15.6363 12.3117L19.6981 8.25586C20.3761 7.57186 21.2822 7.2 22.2422 7.2H24.1922L18.4383 1.44609C17.5203 0.528094 16.296 0.0234375 15 0.0234375ZM4.60783 8.4L1.44611 11.5617C-0.449891 13.4577 -0.449891 16.5423 1.44611 18.4383L4.60783 21.6H7.75783C8.39983 21.6 8.99987 21.348 9.45587 20.898L13.5176 16.8363C14.3336 16.0203 15.6664 16.0203 16.4824 16.8363L20.5442 20.898C21.0002 21.348 21.6002 21.6 22.2422 21.6H25.3922L28.5539 18.4383C30.4499 16.5423 30.4499 13.4577 28.5539 11.5617L25.3922 8.4H22.2422C21.6002 8.4 21.0002 8.65195 20.5442 9.10195L16.4824 13.1637C16.0744 13.5717 15.54 13.7766 15 13.7766C14.46 13.7766 13.9256 13.5717 13.5176 13.1637L9.45587 9.10195C8.99987 8.65195 8.39983 8.4 7.75783 8.4H4.60783ZM15 17.4223C14.769 17.423 14.5377 17.5113 14.3637 17.6883L10.302 21.7441C9.62397 22.4281 8.71783 22.8 7.75783 22.8H5.80783L11.5617 28.5539C12.4797 29.4719 13.704 29.9766 15 29.9766C16.296 29.9766 17.5203 29.4719 18.4383 28.5539L24.1922 22.8H22.2422C21.2822 22.8 20.3761 22.4281 19.6981 21.7441L15.6363 17.6824C15.4623 17.5084 15.231 17.4215 15 17.4223Z" fill="#7A6F00"/>
</g>
<defs>
<clipPath id="clip0_88_89">
<rect width="30" height="30" fill="white"/>
</clipPath>
</defs>
</svg>
