<svg width="24" height="24" viewBox="0 0 24 24" fill="none" xmlns="http://www.w3.org/2000/svg">
<path d="M11 7.8248L6.09999 12.7248C5.89999 12.9248 5.66665 13.0206 5.39999 13.0123C5.13332 13.004 4.89999 12.8998 4.69999 12.6998C4.51665 12.4998 4.42082 12.2665 4.41249 11.9998C4.40415 11.7331 4.49999 11.4998 4.69999 11.2998L11.3 4.6998C11.4 4.5998 11.5083 4.52897 11.625 4.4873C11.7417 4.44564 11.8667 4.4248 12 4.4248C12.1333 4.4248 12.2583 4.44564 12.375 4.4873C12.4917 4.52897 12.6 4.5998 12.7 4.6998L19.3 11.2998C19.4833 11.4831 19.575 11.7123 19.575 11.9873C19.575 12.2623 19.4833 12.4998 19.3 12.6998C19.1 12.8998 18.8625 12.9998 18.5875 12.9998C18.3125 12.9998 18.075 12.8998 17.875 12.6998L13 7.8248V18.9998C13 19.2831 12.9042 19.5206 12.7125 19.7123C12.5208 19.904 12.2833 19.9998 12 19.9998C11.7167 19.9998 11.4792 19.904 11.2875 19.7123C11.0958 19.5206 11 19.2831 11 18.9998V7.8248Z" fill="#645B00"/>
</svg>
