<svg width="30" height="30" viewBox="0 0 30 30" fill="none" xmlns="http://www.w3.org/2000/svg">
<path d="M3 4.2002C1.34531 4.2002 0 5.54551 0 7.2002V22.8002C0 24.4549 1.34531 25.8002 3 25.8002H27C28.6547 25.8002 30 24.4549 30 22.8002V7.2002C30 5.54551 28.6547 4.2002 27 4.2002H3ZM17.8125 11.6439C18.6305 11.6439 19.4813 11.9814 19.4813 11.9814L19.1813 13.4439C19.1813 13.4439 18.5344 13.0127 17.9625 13.0127C17.0813 13.0127 16.7625 13.301 16.7625 13.6877C16.7625 14.4447 19.2188 14.5783 19.2188 16.2752C19.2188 17.6861 17.468 18.6564 16.2 18.6564C14.932 18.6564 14.2688 18.2814 14.2688 18.2814L14.5875 16.8564C14.5875 16.8564 15.2508 17.2502 16.275 17.2502C17.2969 17.2502 17.4375 16.8143 17.4375 16.6314C17.4375 15.5486 15 15.851 15 13.7439C15 12.5791 15.9516 11.6439 17.8125 11.6439ZM9.88125 11.7752H11.775L9.075 18.4502H7.125L5.7 13.0502C5.7 13.0502 7.19766 13.8143 8.11875 15.8814C8.15859 16.1322 8.26875 16.5377 8.26875 16.5377L9.88125 11.7752ZM12.4688 11.7752H14.2688L13.2 18.4502H11.4188L12.4688 11.7752ZM22.0875 11.7752H23.9438L25.3125 18.4502H23.7L23.5125 17.4939H21.3L20.9438 18.4502H19.1813L22.0875 11.7752ZM3.75 11.7939H6.4875C7.18594 11.7939 7.44375 12.4502 7.44375 12.4502L8.04375 15.4877C7.23281 12.8721 3.75 11.7939 3.75 11.7939ZM22.7625 13.7064L21.7875 16.2189H23.25L22.7625 13.7064Z" fill="#7A6F00"/>
</svg>
